<svg width="207" height="58" viewBox="0 0 207 58" fill="none" xmlns="http://www.w3.org/2000/svg">
<path d="M126.056 8.944L125.768 46H116.456L101.336 25.6L101.528 45.952L92.2158 46.288L91.8798 8.8L101.192 9.184L116.6 29.392L116.744 9.28L126.056 8.944ZM132.654 18.592C131.726 18.592 130.814 18.352 129.918 17.872C129.054 17.36 128.334 16.672 127.758 15.808C127.214 14.944 126.942 14.016 126.942 13.024C126.942 11.488 127.518 10.208 128.67 9.184C129.854 8.16 131.262 7.648 132.894 7.648C134.43 7.648 135.662 8.112 136.59 9.04C137.55 9.968 138.03 11.2 138.03 12.736C138.03 14.432 137.518 15.84 136.494 16.96C135.47 18.048 134.19 18.592 132.654 18.592ZM127.422 20.416H137.454V45.856H128.19L127.422 20.416ZM178.15 46H168.838L168.79 32.656C168.79 30.896 168.582 29.68 168.166 29.008C167.782 28.336 167.062 28 166.006 28C165.206 28 164.55 28.496 164.038 29.488C163.558 30.448 163.318 31.68 163.318 33.184L163.366 34.096L163.318 33.952V45.856L154.294 45.952L154.198 32.656C154.198 31.184 153.926 30.048 153.382 29.248C152.838 28.416 152.07 28 151.078 28C150.054 28 149.27 28.432 148.726 29.296C148.182 30.16 147.91 31.392 147.91 32.992L147.958 34L147.91 33.904L148.294 46.048H139.27V20.752L147.526 20.464L147.574 22.384C148.406 21.744 149.414 21.248 150.598 20.896C151.814 20.544 153.126 20.368 154.534 20.368C157.478 20.368 159.702 21.12 161.206 22.624C162.006 21.728 163.062 21.088 164.374 20.704C165.686 20.32 167.398 20.128 169.51 20.128C172.486 20.128 174.646 21.312 175.99 23.68C177.366 26.016 178.07 29.808 178.102 35.056L178.15 46ZM191.604 20.224C195.604 20.224 198.708 21.392 200.916 23.728C203.124 26.064 204.228 29.248 204.228 33.28C204.228 33.952 204.212 34.464 204.18 34.816L187.188 35.008C187.572 36.064 188.1 36.944 188.772 37.648C189.476 38.32 190.292 38.688 191.22 38.752C193.78 38.944 195.636 38.192 196.788 36.496L203.652 38.464C203.236 39.968 202.436 41.328 201.252 42.544C200.068 43.728 198.644 44.656 196.98 45.328C195.348 46 193.652 46.336 191.892 46.336C191.476 46.336 191.156 46.32 190.932 46.288C188.724 46.128 186.676 45.408 184.788 44.128C182.932 42.848 181.444 41.168 180.324 39.088C179.236 37.008 178.692 34.736 178.692 32.272C178.692 31.792 178.708 31.424 178.74 31.168C178.868 29.056 179.508 27.168 180.66 25.504C181.844 23.84 183.38 22.544 185.268 21.616C187.188 20.688 189.3 20.224 191.604 20.224ZM192.084 26.176C189.716 25.984 188.1 26.976 187.236 29.152L195.348 29.2C195.22 28.272 194.836 27.552 194.196 27.04C193.588 26.528 192.884 26.24 192.084 26.176Z" fill="#FF0000"/>
<path d="M22.512 30.592L22.56 46.048H12.96L12.912 29.776L0.432 13.504L10.512 9.328L18.144 20.464L25.584 9.328L35.184 11.68L22.512 30.592ZM40.8128 20.224C44.8128 20.224 47.9168 21.392 50.1248 23.728C52.3328 26.064 53.4368 29.248 53.4368 33.28C53.4368 33.952 53.4208 34.464 53.3888 34.816L36.3968 35.008C36.7808 36.064 37.3088 36.944 37.9808 37.648C38.6848 38.32 39.5008 38.688 40.4288 38.752C42.9888 38.944 44.8448 38.192 45.9968 36.496L52.8608 38.464C52.4448 39.968 51.6448 41.328 50.4608 42.544C49.2768 43.728 47.8528 44.656 46.1888 45.328C44.5568 46 42.8608 46.336 41.1008 46.336C40.6848 46.336 40.3648 46.32 40.1407 46.288C37.9328 46.128 35.8848 45.408 33.9968 44.128C32.1408 42.848 30.6528 41.168 29.5328 39.088C28.4448 37.008 27.9008 34.736 27.9008 32.272C27.9008 31.792 27.9168 31.424 27.9488 31.168C28.0768 29.056 28.7168 27.168 29.8688 25.504C31.0528 23.84 32.5888 22.544 34.4768 21.616C36.3968 20.688 38.5088 20.224 40.8128 20.224ZM41.2928 26.176C38.9248 25.984 37.3088 26.976 36.4448 29.152L44.5568 29.2C44.4288 28.272 44.0448 27.552 43.4048 27.04C42.7968 26.528 42.0928 26.24 41.2928 26.176ZM73.2034 46L73.1554 43.744C72.2914 44.48 71.2194 45.072 69.9394 45.52C68.6594 45.968 67.3474 46.192 66.0034 46.192C63.8914 46.192 61.9394 45.616 60.1474 44.464C58.3554 43.28 56.9314 41.696 55.8754 39.712C54.8194 37.728 54.2914 35.552 54.2914 33.184C54.2914 30.784 54.8354 28.592 55.9234 26.608C57.0114 24.624 58.4994 23.072 60.3874 21.952C62.3074 20.8 64.4194 20.224 66.7234 20.224C67.9714 20.224 69.1394 20.432 70.2274 20.848C71.3474 21.264 72.2434 21.84 72.9154 22.576V20.512H80.8834L81.9874 46H73.2034ZM67.6354 38.272C68.4674 38.272 69.2674 38.016 70.0354 37.504C70.8034 36.992 71.4114 36.32 71.8594 35.488C72.3074 34.624 72.5314 33.712 72.5314 32.752C72.5314 31.44 72.0994 30.352 71.2354 29.488C70.4034 28.592 69.3474 28.144 68.0674 28.144C66.6594 28.144 65.4274 28.64 64.3714 29.632C63.3154 30.624 62.7874 31.808 62.7874 33.184C62.7874 34.016 63.0114 34.832 63.4594 35.632C63.9394 36.432 64.5474 37.072 65.2834 37.552C66.0514 38.032 66.8354 38.272 67.6354 38.272Z" fill="white"/>
</svg>
